<svg xmlns="http://www.w3.org/2000/svg" width="52" height="52" viewBox="0 0 52 52" fill="none"><circle cx="26" cy="26" r="26" fill="#2FDC53"></circle><path d="M29.75 20.25C29.75 18.1797 28.0703 16.5 26 16.5C23.8906 16.5 22.25 18.1797 22.25 20.25C22.25 22.3594 23.8906 24 26 24C28.0703 24 29.75 22.3594 29.75 20.25ZM25.1016 25.9531C22.7969 24.5078 19.0469 24.1172 17.1328 24.0391C16.5078 24 16 24.4688 16 25.0938V33.7656C16 34.3516 16.4297 34.8203 17.0156 34.8203C18.7344 34.9375 22.1719 35.25 24.5547 36.4609C24.9062 36.6562 25.375 36.3828 25.375 35.9922V26.3828C25.375 26.1875 25.2578 26.0312 25.1016 25.9531ZM34.8281 24.0391C32.9141 24.1172 29.1641 24.5078 26.8594 25.9531C26.7031 26.0312 26.625 26.2266 26.625 26.3828V35.9922C26.625 36.3828 27.0547 36.6562 27.4062 36.4609C29.7891 35.25 33.2266 34.9375 34.9453 34.8594C35.5312 34.8203 36 34.3516 36 33.7656V25.0938C36 24.4688 35.4531 24 34.8281 24.0391Z" fill="white"></path></svg>