<svg xmlns="http://www.w3.org/2000/svg" width="76" height="76" viewBox="0 0 76 76" fill="none"><circle cx="38" cy="38" r="38" fill="white"></circle><path d="M55.4453 32.7734L39.0977 27.7344C38.2188 27.4414 37.2227 27.4414 36.3438 27.7344L19.9961 32.7734C18.6484 33.1836 18.6484 35 19.9961 35.4102L22.8672 36.2891C22.2227 37.0508 21.8711 38.0469 21.8125 39.043C21.2266 39.3945 20.875 39.9805 20.875 40.625C20.875 41.2695 21.168 41.7969 21.6367 42.1484L20.1719 48.8867C20.0547 49.4727 20.4648 50 21.0508 50H24.3906C24.9766 50 25.3867 49.4727 25.2695 48.8867L23.8047 42.1484C24.2734 41.7969 24.625 41.2695 24.625 40.625C24.625 39.9805 24.2148 39.3945 23.6875 39.1016C23.7461 38.2227 24.1562 37.4023 24.918 36.9336L36.3438 40.4492C36.8711 40.625 37.9258 40.8008 39.0977 40.4492L55.4453 35.4102C56.793 35 56.793 33.1836 55.4453 32.7734ZM39.625 42.2656C37.9844 42.7344 36.5195 42.5 35.8164 42.2656L27.3203 39.6289L26.5 46.25C26.5 48.3594 31.4805 50 37.75 50C43.9609 50 49 48.3594 49 46.25L48.1211 39.6289L39.625 42.2656Z" fill="#087EED"></path></svg>